# xmcd
#
# Track frame offsets:
#	150
#	14183
#	26630
#	39996
#	53765
#	64100
#	77894
#	88690
#	101783
#	113324
#	124532
#	137869
#	149003
#	160168
#	171663
#	181628
#	195442
#	207280
#	218921
#	229501
#	241608
#	254251
#	265487
#
# Disc length: 3735 seconds
#
# Revision: 0
# Processed by: cddbd v1.5.1PL0 Copyright (c) Steve Scherf et al.
# Submitted via: EasyCDDAExtractor 8.2.1.1
#
DISCID=430e9517
DTITLE=Lefty Frizzell - The Ultimate Collection - Lefty Frizzell
DYEAR=1900
DGENRE=
TTITLE0=Always Late (With Your Kisses)
TTITLE1=I Love You A Thousand Ways
TTITLE2=If You've Got The Money, I've Got The Time
TTITLE3=I Want To Be With You Always
TTITLE4=Give Me More, More, More (Of Your Kisses)
TTITLE5=Mom And Dad's Waltz
TTITLE6=How Long Will It Take
TTITLE7=Travellin' Blues
TTITLE8=Shine, Shave, Shower (It's Saturday)
TTITLE9=Look What Thoughts Will Do
TTITLE10=Don't Stay Away (Till Love Grows Cold)
TTITLE11=Forever (And Always)
TTITLE12=I'm An Old, Old Man (Tryin' To Live While I Can)
TTITLE13=I Love You Mostly
TTITLE14=(Honey, Baby, Hurry!) Bring Your Sweet Self Back To Me
TTITLE15=Run 'Em Off
TTITLE16=My Rough And Rowdy Ways
TTITLE17=Time Changes Things
TTITLE18=Then I'll Come Back To You
TTITLE19=My Baby's Just Like Money
TTITLE20=It's Just You
TTITLE21=If You Can Spare The Time (I Won't Miss The Money)
TTITLE22=Treasure Untold
EXTD=
EXTT0=
EXTT1=
EXTT2=
EXTT3=
EXTT4=
EXTT5=
EXTT6=
EXTT7=
EXTT8=
EXTT9=
EXTT10=
EXTT11=
EXTT12=
EXTT13=
EXTT14=
EXTT15=
EXTT16=
EXTT17=
EXTT18=
EXTT19=
EXTT20=
EXTT21=
EXTT22=
PLAYORDER=
